<svg width="106" height="98" viewBox="0 0 106 98" fill="none" xmlns="http://www.w3.org/2000/svg">
<path d="M99.8763 2.05623C101.915 1.60385 103.901 0.860665 106 0.731415C105.566 1.99564 104.549 2.94078 104.111 4.20097C103.572 5.69946 103.041 7.2141 102.251 8.5995C101.773 9.52848 100.638 9.62138 99.8236 10.1182C99.0211 10.619 98.0444 10.4494 97.1569 10.6029C95.6979 10.8695 94.3605 11.5803 92.9055 11.8469C91.7708 12.065 90.6117 12.1337 89.4891 12.4003C85.7565 13.5352 81.9712 14.5127 78.1494 15.3084C78.1981 15.369 78.2913 15.5022 78.3399 15.5628C75.1058 16.407 71.8555 17.1906 68.6011 17.954C63.5433 19.4201 58.2828 20.131 53.2857 21.8193C57.1237 21.7466 60.8603 20.7288 64.6335 20.1108C65.4359 19.9533 66.2991 20.2562 67.0611 19.8725C68.0256 19.4323 69.0874 19.3111 70.125 19.1374C72.281 18.7779 74.3844 17.857 76.6053 18.1842C79.7341 17.0977 83.0492 16.6897 86.3441 16.4474C88.2692 16.2535 90.2469 16.2656 92.095 15.5951C92.0504 15.5224 91.9612 15.3811 91.9167 15.3084C92.6988 15.2236 93.4851 15.1549 94.2632 15.0378C95.941 14.8156 97.5135 14.0361 99.2319 14.0926C99.2441 15.0378 99.0009 15.9748 98.3808 16.7099C97.6392 17.6308 97.3028 18.7779 96.703 19.7796C96.2085 20.6965 94.6725 20.6238 94.5591 21.7991C94.4577 22.8614 93.9025 24.2468 92.6826 24.3559C88.7231 24.1499 84.8122 24.99 80.8688 25.2C78.806 25.297 76.7391 25.2445 74.6803 25.3939C74.3155 25.406 73.9508 25.4989 73.6995 25.7695C73.432 25.4464 73.1281 25.1516 72.8403 24.8486C72.6417 25.2041 72.4431 25.5635 72.2608 25.9311C71.6164 26.0038 70.9679 26.0644 70.3316 26.1896C68.3661 26.5975 66.3478 26.5652 64.3538 26.6177C61.76 26.642 59.1744 26.9368 56.5766 26.8156C55.993 26.7793 55.4175 26.8924 54.8541 27.0257C54.8663 27.1792 54.8825 27.4781 54.8906 27.6315C56.7022 27.5427 58.4935 27.7769 60.293 27.9183C60.3983 28.0112 60.6091 28.201 60.7144 28.298C61.76 28.1889 62.8097 27.9587 63.8675 28.0678C66.0317 28.2737 68.1837 27.5306 70.3438 27.9062C71.5272 28.1162 72.6782 27.6235 73.8616 27.7487C75.0977 27.9223 76.3419 27.5427 77.5699 27.8295C78.9032 28.1162 80.269 27.9627 81.6145 27.8658C82.4697 27.7608 83.26 28.197 84.0989 28.2536C84.9337 28.1607 85.7524 27.7729 86.6116 27.9102C88.6258 28.4595 90.5752 27.3205 92.6056 27.4781C92.5894 27.7446 92.5651 28.0112 92.5367 28.2778C92.018 28.9765 91.2317 29.5501 91.0656 30.4508C90.8751 31.3555 90.6157 32.2441 90.2591 33.1045C90.1942 33.0843 90.0605 33.0439 89.9916 33.0237C89.408 34.3 88.6096 35.7743 87.106 36.0812C86.1009 36.0853 85.108 35.8954 84.107 35.8349C82.9884 35.7581 81.9671 35.2573 80.885 35.0271C79.9732 34.8332 79.037 35.0674 78.121 34.9826C77.4321 34.9059 76.7674 34.6797 76.0866 34.5585C75.1017 34.3808 74.1007 34.6837 73.1159 34.4737C71.5191 34.1183 69.8534 34.1506 68.3215 33.5407C67.3326 33.5972 66.3275 33.7628 65.3589 33.468C63.9607 33.06 62.4693 33.2539 61.0792 32.8298C59.6242 32.3815 58.0842 32.4784 56.5928 32.2401C56.2078 32.1593 55.9362 32.535 55.612 32.6723C56.9048 33.5124 58.4976 33.4114 59.916 33.8759C60.6334 34.0859 61.0792 34.7201 61.6466 35.1563C63.0367 34.716 64.4511 35.2371 65.8655 35.2048C67.2556 35.4512 68.5971 35.9601 70.0236 36.053L69.894 36.3357C71.7096 36.57 73.5374 36.7679 75.3165 37.2001C76.0258 37.3495 76.5688 37.8423 76.9984 38.3997C78.7776 37.9231 80.577 38.4764 82.3157 38.8399C83.5355 39.1267 84.8527 38.7915 86.0158 39.369C85.9105 40.7827 84.8081 41.7723 84.1151 42.9274C83.8436 43.4121 83.3815 43.7151 82.8425 43.8322C82.9317 44.2805 83.1911 44.7693 82.883 45.1934C82.2468 46.3768 81.8293 47.7137 80.9012 48.7154C80.111 48.7922 79.3652 48.36 78.6439 48.1015C77.2943 47.435 75.8596 46.9907 74.433 46.5182L74.5627 46.2072C73.3631 45.3307 71.8109 45.3509 70.5383 44.644C69.4684 44.0826 68.1999 44.0341 67.1624 43.396C66.518 43.0123 65.7925 42.8305 65.0671 42.6689C64.0499 42.4832 63.3487 41.6188 62.372 41.3239C61.5696 41.0695 60.7509 40.8635 59.9647 40.5646C58.4611 39.9911 56.7792 39.9264 55.3445 39.1752C54.4408 38.3956 53.2168 38.2341 52.0821 38.0442C51.0689 38.0725 50.0233 38.1694 49.1114 37.6403C50.5298 42.8871 51.5957 48.2186 52.9048 53.4936C53.4721 55.703 53.8693 57.9487 54.4327 60.1581C54.842 61.9272 55.3932 63.664 55.7012 65.4613C55.3445 65.6431 54.9919 65.8249 54.6394 66.0107C55.1905 68.9107 55.9241 71.7704 56.5685 74.6502C57.0953 77.0131 57.5938 79.384 57.9261 81.7791C57.9869 81.7388 58.1126 81.658 58.1734 81.6176C58.3314 81.9771 58.4976 82.3365 58.6637 82.7001C70.976 82.7001 83.2883 82.6395 95.6006 82.7324C95.5115 78.8953 95.5844 75.0582 95.5196 71.221C95.5074 56.737 95.4993 42.2529 95.4709 27.7689C95.4993 26.537 95.3453 25.2808 95.5966 24.0651C96.3788 22.1586 97.9877 20.7409 98.8955 18.9031C99.1589 18.3659 99.5196 17.8813 99.9249 17.441C100.561 19.0566 100.014 20.7853 100.071 22.4535C99.9492 24.8769 100.541 27.2599 100.484 29.6793C100.573 32.3774 99.7871 35.1038 100.476 37.7776C100.529 41.0291 100.496 44.2846 100.48 47.536C100.026 54.2085 100.719 60.9013 100.448 67.5778C100.282 69.0602 100.217 70.5506 100.282 72.041C100.403 76.0437 100.448 80.0464 100.484 84.0491C100.667 87.971 99.8844 91.8727 100.172 95.7947C100.229 96.3844 100.44 96.9458 100.573 97.5193C100.557 97.6405 100.529 97.8788 100.517 98C88.2124 97.899 75.9082 97.9838 63.6041 97.8344C60.5888 97.8223 57.5735 97.6728 54.5623 97.8627C51.5552 98.0404 48.5359 98.0202 45.5409 97.6769C43.7942 97.5113 42.0555 97.8223 40.3128 97.8627C33.8933 97.9879 27.4696 97.9636 21.05 97.8667C19.206 97.8425 17.3661 97.7092 15.5302 97.8102C11.2018 98.1656 6.85727 97.7617 2.52082 97.9515C2.51677 97.6405 2.51677 97.3295 2.51677 97.0225C2.54514 92.4544 2.5654 87.8862 2.50055 83.314C2.44382 80.5674 2.33034 77.8128 2.58161 75.0703C2.54514 73.9111 2.28576 72.768 2.38708 71.6088C2.59782 69.3792 2.35871 67.1497 2.42355 64.9201C2.47219 62.8198 2.38302 60.7235 2.37492 58.6232C2.35871 56.7087 2.6343 54.7982 2.52892 52.8797C2.3506 50.0766 2.46813 47.2694 2.32223 44.4663C2.37897 44.4421 2.4965 44.4057 2.55729 44.3815C3.57859 46.5101 3.53806 48.9012 4.23514 51.1187C4.36888 51.6195 4.49451 52.1244 4.62015 52.6293L4.86737 52.4192C5.86435 55.4566 6.64653 58.5626 7.10855 61.7252C7.23013 62.9127 7.87047 64.1002 7.42871 65.2917C7.80157 66.5721 7.61109 67.905 7.55435 69.2096C7.57461 73.7172 7.57867 78.2288 7.54624 82.7324C19.7977 82.6314 32.0533 82.7162 44.3048 82.6879C46.1407 82.6556 47.9807 82.8656 49.8166 82.7001C49.387 80.4947 48.7223 78.3419 48.317 76.1285C48.0901 75.3772 48.2481 74.6058 48.2765 73.8464C48.1144 73.4304 47.624 73.3294 47.2876 73.1073C46.7405 71.4957 46.6838 69.7427 46.007 68.1796C45.6584 68.1716 45.3139 68.1716 44.9695 68.1716C42.7931 58.8454 40.6249 49.5151 38.4283 40.189C36.9409 40.298 35.5103 40.7544 34.1121 41.2391C33.3948 41.8409 32.8152 42.6043 32.0411 43.1415C31.0563 43.8443 30.4281 44.9227 29.4433 45.6175C28.0289 48.57 26.9873 51.7003 26.4726 54.9275C26.6145 56.0786 26.5537 57.2742 26.9752 58.3768C27.2346 59.0594 27.3643 59.7824 27.3683 60.5135C25.8526 60.7599 24.3449 61.0669 22.8495 61.4102C21.1514 62.1049 19.283 62.1816 17.5525 62.7754C16.7622 63.042 15.9395 63.1874 15.1128 63.3085C15.1452 63.7124 15.1492 64.1204 15.1209 64.5283C13.3295 64.9363 11.5423 65.3725 9.74689 65.7602C9.34567 64.6495 9.19167 63.4701 8.89987 62.327C8.60807 61.0184 8.14605 59.7259 8.17037 58.3688C8.27169 57.3873 7.61514 56.5875 7.39629 55.6787C6.97886 54.0591 6.62627 52.4192 6.22099 50.7955C5.76708 48.8487 5.26049 46.91 4.92816 44.9389L4.64852 45.1005C4.35672 43.6101 3.95144 42.1479 3.59885 40.6737C3.53806 39.8618 3.55833 39.0459 3.5178 38.2381C3.25437 37.9069 2.88151 37.6242 2.75993 37.2041C2.10338 33.8759 1.3212 30.572 0.547123 27.268C0.328274 26.4885 0.125636 25.7049 0 24.9011C1.94938 24.5659 3.82176 23.8348 5.7914 23.6531C5.98593 24.1176 6.1683 24.5942 6.32231 25.0748C7.70025 24.7436 9.08629 24.4609 10.5129 24.4609C12.5068 23.3663 14.8047 23.1603 16.9811 22.6433C18.4644 22.3121 19.8991 21.7668 21.4229 21.6416C25.0137 20.9469 28.5274 19.9048 32.1019 19.1212C32.4869 19.0001 32.9733 19.0526 33.2732 18.7416C33.0624 17.962 32.7017 17.2269 32.6409 16.4151C33.9419 16.1485 35.2469 15.894 36.5397 15.5951C36.4911 15.5346 36.3979 15.4134 36.3492 15.3528C38.7404 14.9489 41.0707 14.2703 43.4294 13.7331C43.6239 14.6015 43.7658 15.478 43.9522 16.3464C45.087 16.2495 46.1853 15.9546 47.2674 15.6315C47.2431 15.5628 47.1863 15.4215 47.1579 15.3528C48.3332 14.9247 49.5774 14.8924 50.7933 15.167C51.1661 14.8116 51.5552 14.4238 52.0942 14.3552C54.6191 13.8866 56.9778 12.7799 59.5351 12.4608C59.8796 12.6062 60.1835 12.8607 60.5604 12.9132C61.14 12.6103 61.6506 12.1781 62.2585 11.9196C63.7175 11.2936 65.3184 11.1845 66.8625 10.8654C67.9851 10.6352 69.0064 10.0697 70.129 9.81929C72.7633 9.24979 75.426 8.78126 78.0805 8.30061C79.3936 7.88055 80.727 7.52511 82.1009 7.36355C83.7098 7.20199 85.1607 6.45476 86.7048 6.0347C87.9206 5.69946 89.1324 5.34806 90.3726 5.10571L90.1861 4.89568C91.9369 4.44735 93.6512 3.87784 95.321 3.19524C96.7719 2.55707 98.3768 2.51264 99.8763 2.05623ZM4.87142 85.0831C4.88763 85.2568 4.91195 85.6001 4.92816 85.7738C5.63739 86.0565 5.84408 86.8562 6.0832 87.5025C6.79648 90.1117 7.74078 92.6563 8.37706 95.2898C8.84718 95.2858 9.3173 95.2858 9.78742 95.2817C10.2616 93.5893 10.7682 91.897 11.3558 90.241C11.903 91.9091 12.3893 93.5974 12.8635 95.2857C13.3295 95.2817 13.7956 95.2817 14.2617 95.2817C14.594 93.9852 15.0844 92.7411 15.3964 91.4446C15.4694 91.4648 15.6153 91.5052 15.6882 91.5254C16.0003 90.2814 16.5028 89.0979 16.7582 87.8418C16.9365 87.038 17.2445 86.1171 18.0915 85.798C18.124 85.5637 18.1564 85.3335 18.1847 85.1033C17.0946 85.1033 16.0003 85.1033 14.9101 85.1033C14.9344 85.3295 14.9547 85.5597 14.979 85.7899C15.3964 85.8505 15.822 85.9111 16.1989 86.1211C16.0125 86.9128 15.7774 87.6964 15.6923 88.5123C15.6193 88.4759 15.4734 88.4032 15.4005 88.3668C15.0114 89.8128 14.5535 91.2427 14.059 92.6604C13.2404 90.4995 12.5555 88.2739 12.1299 86.004C12.4177 85.9151 12.7054 85.8344 12.9972 85.7536C13.0134 85.592 13.0458 85.2608 13.0661 85.0993C11.8381 85.1235 10.6101 85.1235 9.37809 85.0912C9.37809 85.2648 9.39025 85.6162 9.3943 85.794C9.52399 85.8303 9.77932 85.9111 9.90495 85.9515C10.3345 86.7795 10.6426 87.664 10.8452 88.5769C10.4318 89.9421 10.0184 91.3073 9.54426 92.6523C8.79044 90.4631 7.98394 88.2255 7.7732 85.9111C7.95557 85.8747 8.32437 85.802 8.50675 85.7697C8.49864 85.596 8.47838 85.2568 8.47027 85.0831C7.27066 85.1316 6.07104 85.1235 4.87142 85.0831ZM90.3401 86.4604C90.3401 86.731 90.3482 87.0057 90.3604 87.2844C90.7049 87.3288 91.0575 87.3773 91.406 87.4298C91.3857 89.7563 91.5803 92.0949 91.3168 94.4093C90.9967 94.4335 90.6806 94.4577 90.3644 94.486C90.3563 94.6758 90.3401 95.0555 90.332 95.2454C91.6492 95.2131 92.9663 95.1969 94.2875 95.2575C94.2754 94.999 94.2632 94.7405 94.2592 94.486C93.9309 94.4497 93.6067 94.4133 93.2865 94.377C93.1933 93.3712 93.169 92.3615 93.1973 91.3517C93.3149 91.384 93.5459 91.4486 93.6634 91.4769C94.3929 92.7371 95.1305 93.9932 95.8519 95.2575C96.6179 95.2615 97.3838 95.2615 98.1539 95.2615C98.1498 95.0878 98.1417 94.7364 98.1376 94.5628C97.8013 94.4093 97.4365 94.2558 97.2339 93.9286C96.5976 93.0279 96.0545 92.0666 95.4709 91.1336C96.0221 90.9074 96.6624 90.7055 96.9826 90.1561C97.4568 89.4412 97.3392 88.5365 97.169 87.7489C96.8853 86.9168 95.9532 86.5331 95.1346 86.517C93.5337 86.4725 91.9248 86.7028 90.3401 86.4604ZM20.6569 86.517C19.968 88.7425 19.2466 90.9599 18.359 93.1168C18.0996 93.6499 18.0064 94.4295 17.3012 94.5385C17.3012 94.7162 17.281 95.0757 17.2729 95.2575C18.1199 95.2292 18.971 95.2292 19.8221 95.2494C19.818 95.0636 19.8059 94.6839 19.8018 94.4981C19.6235 94.4699 19.2628 94.4174 19.0845 94.3891C19.2223 93.8115 19.3884 93.242 19.587 92.6886C20.4381 92.6927 21.2892 92.6806 22.1443 92.6806C22.3226 93.2218 22.5577 93.759 22.6063 94.3325C22.432 94.377 22.0916 94.4577 21.9214 94.4981C21.8971 94.7486 21.8728 95.003 21.8566 95.2575C22.9873 95.2292 24.118 95.2332 25.2528 95.2494C25.2447 95.0757 25.2244 94.7324 25.2122 94.5628C24.9812 94.3891 24.6367 94.3123 24.5476 94.0094C23.5749 91.5577 22.6833 89.0696 21.9619 86.5331C21.5242 86.525 21.0865 86.521 20.6569 86.517ZM26.963 86.525C26.9671 86.7149 26.9711 87.0945 26.9711 87.2844C27.3075 87.3248 27.6439 87.3652 27.9803 87.4096C28.0856 89.7159 28.0938 92.0303 27.9965 94.3406C27.6561 94.3931 27.3197 94.4537 26.9833 94.5224C26.9671 94.7607 26.9549 95.003 26.9428 95.2454C28.264 95.209 29.5852 95.1888 30.9064 95.2575C30.8983 95.0676 30.8821 94.688 30.8739 94.4981L29.9134 94.3891C29.7959 93.343 29.7392 92.2888 29.8729 91.2467C31.0685 92.3372 31.571 93.9609 32.4829 95.2736C33.2529 95.2777 34.0229 95.2736 34.793 95.2696C34.7889 95.0919 34.7849 94.7324 34.7768 94.5547C34.4444 94.4214 34.0675 94.3164 33.877 93.9892C33.2286 93.0804 32.6936 92.0989 32.0776 91.174C32.5842 90.9276 33.1759 90.7499 33.5163 90.2692C34.0878 89.4857 34.0108 88.4113 33.6825 87.551C33.2408 86.6947 32.1789 86.4846 31.2954 86.517C29.8567 86.5533 28.4099 86.5937 26.963 86.525ZM36.329 86.525C36.329 86.7149 36.3249 87.0905 36.3249 87.2803C36.7545 87.3328 37.1841 87.3934 37.6137 87.454C37.5772 89.7724 37.7555 92.107 37.5083 94.4174C37.1111 94.4456 36.714 94.4699 36.3209 94.4941C36.3249 94.688 36.333 95.0717 36.3371 95.2615C37.7069 95.2332 39.0808 95.2009 40.4506 95.2696C40.4547 95.0838 40.4668 94.7082 40.4749 94.5224C40.1467 94.4739 39.8184 94.4214 39.4942 94.377C39.4091 93.3753 39.3929 92.3736 39.3847 91.3719C40.3696 91.3679 41.3544 91.3679 42.3392 91.38C42.2906 92.3736 42.4081 93.3914 42.1974 94.3729C41.8934 94.4295 41.5895 94.4779 41.2855 94.5183C41.2774 94.7647 41.2652 95.0111 41.2571 95.2615C42.5621 95.2171 43.8712 95.2292 45.1761 95.2534C45.1761 95.0676 45.164 94.696 45.1599 94.5102C44.8357 94.4658 44.5155 94.4214 44.1954 94.381C44.0616 92.1959 44.0211 89.9946 44.1711 87.8095C44.1386 87.2965 44.8073 87.4096 45.1275 87.244C45.1356 87.0784 45.1518 86.7391 45.1599 86.5735C43.8549 86.5372 42.55 86.5897 41.249 86.517C41.2571 86.7108 41.2774 87.1026 41.2895 87.2965C41.6097 87.3369 41.9339 87.3773 42.2582 87.4217C42.3068 88.4113 42.3271 89.3968 42.3189 90.3864C41.3341 90.3743 40.3534 90.3783 39.3685 90.3864C39.3847 89.3968 39.324 88.3911 39.5793 87.4217C39.867 87.3692 40.1588 87.3207 40.4466 87.2682C40.4506 87.0905 40.4506 86.7391 40.4547 86.5614C39.0848 86.5614 37.7069 86.5775 36.329 86.525ZM50.315 86.5331C49.6139 89.0737 48.6575 91.5254 47.7172 93.9852C47.6362 93.969 47.4781 93.9367 47.3971 93.9205C47.3079 94.2558 47.0931 94.4618 46.7527 94.5385C46.7284 94.7688 46.704 95.007 46.6838 95.2413C47.62 95.2332 48.5602 95.2332 49.4964 95.2575C49.4883 95.0071 49.4842 94.7566 49.4802 94.5062C49.2978 94.4739 48.9331 94.4052 48.7466 94.3729C48.8966 93.8034 49.079 93.242 49.2654 92.6846C50.1246 92.6684 50.9878 92.6886 51.847 92.6846C52.0253 93.2541 52.2036 93.8236 52.3171 94.4133C52.1266 94.4295 51.7457 94.4618 51.5552 94.482C51.543 94.7405 51.5309 94.999 51.5228 95.2575C52.6697 95.2292 53.8166 95.2252 54.9636 95.2615C55.1419 94.5183 54.2786 94.3689 54.1165 93.7711C53.2087 91.384 52.309 88.9929 51.6403 86.5291C51.1945 86.525 50.7527 86.5291 50.315 86.5291M56.6252 86.517C56.613 86.7108 56.5887 87.1026 56.5806 87.2965C56.9008 87.3369 57.225 87.3854 57.5492 87.4338C57.5492 89.7522 57.4155 92.0787 57.1723 94.385C56.8967 94.4254 56.6252 94.4658 56.3537 94.5102C56.3618 94.7001 56.378 95.0757 56.382 95.2656C57.4114 95.2171 58.4408 95.2252 59.4702 95.2575C59.454 94.9949 59.4378 94.7324 59.4257 94.4739C59.2311 94.4537 58.8421 94.4133 58.6475 94.3891C58.5381 92.5998 58.6881 90.8064 58.8258 89.0252C59.5432 91.0851 60.1633 93.1693 60.8117 95.2494C61.2575 95.2696 61.7074 95.2858 62.1572 95.3059C62.9232 93.2016 63.4501 91.0245 64.289 88.9444C64.3619 90.7499 64.5159 92.5634 64.4632 94.3729C64.1552 94.4174 63.8472 94.4618 63.5433 94.5062C63.5352 94.7526 63.5271 94.999 63.5189 95.2454C64.751 95.2413 65.9871 95.2171 67.2232 95.2656C67.2232 95.0757 67.2394 94.696 67.2475 94.5062C67.0327 94.4739 66.6031 94.4093 66.3883 94.377C66.0722 92.0707 65.9911 89.732 65.9992 87.4055C66.3235 87.3611 66.6517 87.3207 66.9841 87.2763C66.9638 87.0218 66.9476 86.7714 66.9354 86.517C65.9425 86.5291 64.9496 86.5412 63.9607 86.517C63.3325 88.6536 62.676 90.7822 61.8776 92.8664C61.067 90.8145 60.4672 88.6859 59.9323 86.5493C58.834 86.521 57.7316 86.5493 56.6252 86.521M69.2455 86.5654C69.2455 86.7351 69.2333 87.0743 69.2293 87.244C69.5616 87.3369 69.898 87.4217 70.2425 87.4823C70.1736 89.6674 70.0601 91.8566 69.894 94.0336C69.8656 94.4699 69.3022 94.4133 69.0185 94.5506C69.0185 94.7284 69.0267 95.0838 69.0307 95.2615C69.975 95.2171 70.9233 95.2211 71.8717 95.2534C71.8636 95.0676 71.8474 94.696 71.8352 94.5062C71.5556 94.4456 71.28 94.381 71.0044 94.3204C70.976 92.5473 71.1179 90.7741 71.1949 89.005C72.0014 91.0447 72.5404 93.1814 73.2294 95.2615C73.6873 95.2615 74.1493 95.2615 74.6073 95.2575C75.2841 93.1127 75.9609 90.964 76.6783 88.8354C76.7715 90.6812 76.9336 92.5311 76.8566 94.385C76.5526 94.4214 76.2446 94.4537 75.9447 94.486C75.9447 94.7445 75.9569 95.003 75.969 95.2656C77.2821 95.2009 78.5952 95.2373 79.9124 95.2494C79.9124 95.0636 79.9043 94.692 79.9043 94.5062C79.5314 94.4577 79.1626 94.4295 78.7979 94.3608C78.4858 92.0626 78.3966 89.7199 78.4169 87.3975C78.733 87.3611 79.0532 87.3288 79.3774 87.2965C79.3774 87.1026 79.3896 86.7149 79.3896 86.521C78.3764 86.5331 77.3672 86.521 76.354 86.5291C75.7137 88.6536 75.0936 90.7862 74.2871 92.8623C73.4685 90.8024 72.8849 88.6657 72.3215 86.5291C71.2962 86.517 70.2709 86.517 69.2455 86.5654ZM81.4362 87.2521C81.7726 87.3207 82.1211 87.3692 82.4575 87.4702C82.6237 89.6472 82.5548 91.8526 82.5102 94.0336C82.5467 94.5789 81.7969 94.3891 81.4848 94.5304C81.4646 94.7728 81.4484 95.0151 81.4322 95.2615C83.6814 95.2979 85.9307 95.2696 88.18 95.2696C88.3016 94.4456 88.4191 93.6217 88.5448 92.7977C88.1233 92.7411 87.7018 92.6886 87.2884 92.6402C87.0979 93.1935 86.9561 93.7792 86.644 94.28C85.9267 94.3043 85.108 94.4901 84.4474 94.1912C84.1799 93.3147 84.3907 92.309 84.2975 91.384C85.2458 91.3759 86.1982 91.38 87.1466 91.4042C87.1466 91.0205 87.1466 90.6408 87.1466 90.2612C86.1942 90.2975 85.2458 90.2894 84.3015 90.2773C84.3339 89.3483 84.3542 88.4234 84.338 87.4944C85.1202 87.4782 85.9064 87.4782 86.6926 87.4742C86.8102 88.0478 86.9561 88.6173 87.0695 89.1949C87.4667 89.1949 87.8639 89.207 88.2651 89.215C88.2773 88.3143 88.2651 87.4136 88.2408 86.5129C85.9915 86.5493 83.7463 86.5412 81.5011 86.521C81.4808 86.7633 81.4565 87.0057 81.4322 87.2521" fill="#010101"/>
</svg>
